<svg width="20" height="20" viewBox="0 0 20 20" fill="none" xmlns="http://www.w3.org/2000/svg">
<path d="M9.99512 13C10.8051 13 11.4951 12.7 12.1051 12.11C12.6951 11.5 12.9951 10.81 12.9951 10C12.9951 9.19 12.6951 8.5 12.1051 7.89C11.4951 7.3 10.8051 7 9.99512 7C9.18512 7 8.49512 7.3 7.88512 7.89C7.29512 8.5 6.99512 9.19 6.99512 10C6.99512 10.81 7.29512 11.5 7.88512 12.11C8.49512 12.7 9.18512 13 9.99512 13ZM9.99512 0C12.7451 0 15.0951 1 17.0451 2.95C18.9951 4.9 19.9951 7.25 19.9951 10V11.45C19.9951 12.45 19.6451 13.3 18.9951 14C18.2951 14.67 17.4951 15 16.4951 15C15.2951 15 14.3051 14.5 13.5551 13.5C12.5551 14.5 11.3751 15 9.99512 15C8.62512 15 7.44512 14.5 6.45512 13.54C5.49512 12.55 4.99512 11.38 4.99512 10C4.99512 8.63 5.49512 7.45 6.45512 6.46C7.44512 5.5 8.62512 5 9.99512 5C11.3751 5 12.5451 5.5 13.5351 6.46C14.4951 7.45 14.9951 8.63 14.9951 10V11.45C14.9951 11.86 15.1551 12.22 15.4551 12.53C15.7551 12.84 16.1051 13 16.4951 13C16.9151 13 17.2651 12.84 17.5651 12.53C17.8651 12.22 17.9951 11.86 17.9951 11.45V10C17.9951 7.81 17.2251 5.93 15.6451 4.35C14.0651 2.77 12.1851 2 9.99512 2C7.80512 2 5.92512 2.77 4.34512 4.35C2.76512 5.93 1.99512 7.81 1.99512 10C1.99512 12.19 2.76512 14.07 4.34512 15.65C5.92512 17.23 7.80512 18 9.99512 18H14.9951V20H9.99512C7.24512 20 4.89512 19 2.94512 17.05C0.995117 15.1 -0.00488281 12.75 -0.00488281 10C-0.00488281 7.25 0.995117 4.9 2.94512 2.95C4.89512 1 7.24512 0 9.99512 0Z" fill="#0A0A0A"/>
</svg>
