<svg width="18" height="23" viewBox="0 0 18 23" fill="none" xmlns="http://www.w3.org/2000/svg">
<path d="M11 1.5V5.5C11 6.03043 11.2107 6.53914 11.5858 6.91421C11.9609 7.28929 12.4696 7.5 13 7.5H17M12 1.5H3C2.46957 1.5 1.96086 1.71071 1.58579 2.08579C1.21071 2.46086 1 2.96957 1 3.5V19.5C1 20.0304 1.21071 20.5391 1.58579 20.9142C1.96086 21.2893 2.46957 21.5 3 21.5H15C15.5304 21.5 16.0391 21.2893 16.4142 20.9142C16.7893 20.5391 17 20.0304 17 19.5V6.5L12 1.5Z" stroke="#7E7E7E" stroke-width="2" stroke-linecap="round" stroke-linejoin="round"/>
</svg>
