<svg width="160" height="36" viewBox="0 0 160 36" fill="none" xmlns="http://www.w3.org/2000/svg">
<path d="M34.8278 11.6105C36.306 15.5037 36.3886 19.789 35.0615 23.7362C33.7344 27.6835 31.0797 31.0485 27.5497 33.2579C24.0197 35.4672 19.8329 36.3843 15.7025 35.8527C11.5722 35.3212 7.75394 33.374 4.89835 30.3428C2.04277 27.3117 0.326528 23.3842 0.042063 19.2295C-0.242402 15.0749 0.922507 10.9501 3.3383 7.55806C5.7541 4.166 9.27131 1.71652 13.2907 0.626987C17.31 -0.462547 21.5828 -0.124724 25.3809 1.58289L18 18L34.8278 11.6105Z" fill="#F31111"/>
<path d="M49.0769 24.5V12.394H51.9363L53.1246 16.6831L53.5331 18.3541H53.6074L54.0159 16.6831L55.2042 12.394H58.0636V24.5H55.7612V20.7494C55.7612 20.4151 55.7736 20.0005 55.7984 19.5053C55.8231 18.9978 55.8541 18.4717 55.8912 17.9271C55.9283 17.3824 55.9655 16.8625 56.0026 16.3674C56.0521 15.8723 56.0893 15.4638 56.114 15.142H56.0583L55.1299 18.3727L54.2016 21.2878H52.8647L51.9178 18.3727L51.0451 15.142H50.9894C51.0141 15.4638 51.0451 15.8723 51.0822 16.3674C51.1317 16.8625 51.1751 17.3824 51.2122 17.9271C51.2493 18.4717 51.2803 18.9978 51.305 19.5053C51.3298 20.0005 51.3422 20.4151 51.3422 20.7494V24.5H49.0769ZM64.7035 24.7228C63.899 24.7228 63.1377 24.5371 62.4197 24.1658C61.7018 23.7821 61.12 23.2312 60.6744 22.5133C60.2288 21.7829 60.006 20.9103 60.006 19.8952C60.006 18.8802 60.2288 18.0137 60.6744 17.2958C61.12 16.5655 61.7018 16.0146 62.4197 15.6433C63.1377 15.2595 63.899 15.0677 64.7035 15.0677C65.5081 15.0677 66.2694 15.2595 66.9874 15.6433C67.7053 16.0146 68.2871 16.5655 68.7327 17.2958C69.1783 18.0137 69.4011 18.8802 69.4011 19.8952C69.4011 20.9103 69.1783 21.7829 68.7327 22.5133C68.2871 23.2312 67.7053 23.7821 66.9874 24.1658C66.2694 24.5371 65.5081 24.7228 64.7035 24.7228ZM64.7035 22.5133C65.1244 22.5133 65.471 22.4081 65.7433 22.1976C66.028 21.9872 66.2385 21.6839 66.3746 21.2878C66.5232 20.8917 66.5974 20.4275 66.5974 19.8952C66.5974 19.363 66.5232 18.8988 66.3746 18.5027C66.2385 18.1066 66.028 17.8033 65.7433 17.5929C65.471 17.3824 65.1244 17.2772 64.7035 17.2772C64.2827 17.2772 63.9299 17.3824 63.6452 17.5929C63.3729 17.8033 63.1624 18.1066 63.0139 18.5027C62.8777 18.8988 62.8097 19.363 62.8097 19.8952C62.8097 20.4275 62.8777 20.8917 63.0139 21.2878C63.1624 21.6839 63.3729 21.9872 63.6452 22.1976C63.9299 22.4081 64.2827 22.5133 64.7035 22.5133ZM75.0199 24.7228C73.8563 24.7228 72.9155 24.2958 72.1976 23.4416C71.492 22.5752 71.1392 21.393 71.1392 19.8952C71.1392 18.8926 71.3249 18.0323 71.6963 17.3144C72.08 16.5964 72.5751 16.0456 73.1817 15.6618C73.7882 15.2657 74.4195 15.0677 75.0756 15.0677C75.5831 15.0677 76.0225 15.1543 76.3939 15.3276C76.7652 15.5009 77.0994 15.7423 77.3965 16.0518H77.4708L77.3408 14.6221V11.4841H80.0702V24.5H77.8421L77.6379 23.5531H77.5822C77.248 23.8873 76.8519 24.1658 76.3939 24.3886C75.9482 24.6114 75.4902 24.7228 75.0199 24.7228ZM75.7254 22.4947C76.0349 22.4947 76.3196 22.4328 76.5795 22.309C76.8519 22.1729 77.1056 21.9501 77.3408 21.6406V17.9085C77.0932 17.6857 76.8395 17.531 76.5795 17.4443C76.332 17.3453 76.072 17.2958 75.7997 17.2958C75.4655 17.2958 75.156 17.3886 74.8713 17.5743C74.5866 17.76 74.3576 18.0447 74.1843 18.4284C74.0234 18.7998 73.9429 19.2763 73.9429 19.8581C73.9429 20.7617 74.0977 21.4302 74.4071 21.8634C74.7166 22.2843 75.156 22.4947 75.7254 22.4947ZM87.5271 24.7228C86.574 24.7228 85.7075 24.5371 84.9277 24.1658C84.1602 23.7821 83.5475 23.2312 83.0895 22.5133C82.6439 21.7829 82.4211 20.9103 82.4211 19.8952C82.4211 18.8926 82.6501 18.0323 83.1081 17.3144C83.5661 16.584 84.1602 16.027 84.8905 15.6433C85.6209 15.2595 86.3945 15.0677 87.2115 15.0677C88.1646 15.0677 88.963 15.2657 89.6067 15.6618C90.2504 16.0456 90.7331 16.5717 91.055 17.2401C91.3892 17.8961 91.5563 18.645 91.5563 19.4868C91.5563 19.7343 91.5377 19.9757 91.5006 20.2109C91.4758 20.4337 91.4511 20.6008 91.4263 20.7122H84.4449V18.874H89.5881L89.1611 19.3939C89.1611 18.6512 89.0002 18.0942 88.6783 17.7228C88.3689 17.3391 87.9109 17.1472 87.3043 17.1472C86.8587 17.1472 86.4688 17.2463 86.1346 17.4443C85.8004 17.6424 85.5404 17.9457 85.3547 18.3541C85.1691 18.7626 85.0762 19.2763 85.0762 19.8952C85.0762 20.5265 85.1876 21.0464 85.4104 21.4549C85.6332 21.851 85.9551 22.1481 86.3759 22.3462C86.7968 22.5442 87.3043 22.6432 87.8985 22.6432C88.3194 22.6432 88.7155 22.5875 89.0868 22.4761C89.4705 22.3647 89.8666 22.2038 90.2751 21.9934L91.1849 23.6459C90.6527 23.9801 90.0647 24.2462 89.421 24.4443C88.7774 24.63 88.1461 24.7228 87.5271 24.7228ZM99.8673 24.7228C98.7161 24.7228 97.8434 24.3762 97.2493 23.683C96.6551 22.9898 96.358 22.0615 96.358 20.8979V13.638H93.4801V11.5027H99.0875V21.0093C99.0875 21.5787 99.2422 21.9748 99.5517 22.1976C99.8611 22.4081 100.202 22.5133 100.573 22.5133C100.796 22.5133 101.018 22.4885 101.241 22.439C101.476 22.3895 101.736 22.3152 102.021 22.2162L102.615 24.2215C102.145 24.37 101.712 24.4876 101.316 24.5743C100.932 24.6733 100.449 24.7228 99.8673 24.7228ZM116.137 27.9164V15.2905H118.365L118.569 16.2189H118.625C119.008 15.8847 119.435 15.6123 119.906 15.4019C120.389 15.1791 120.877 15.0677 121.373 15.0677C122.14 15.0677 122.796 15.2595 123.341 15.6433C123.898 16.027 124.325 16.5717 124.622 17.2772C124.919 17.9828 125.068 18.8059 125.068 19.7467C125.068 20.7989 124.876 21.6963 124.492 22.439C124.121 23.1817 123.632 23.7511 123.025 24.1472C122.419 24.5309 121.769 24.7228 121.076 24.7228C120.667 24.7228 120.265 24.6362 119.869 24.4629C119.485 24.2896 119.132 24.042 118.81 23.7202H118.736L118.866 25.2241V27.9164H116.137ZM120.444 22.4947C120.791 22.4947 121.1 22.4019 121.373 22.2162C121.645 22.0305 121.862 21.7396 122.022 21.3435C122.183 20.935 122.264 20.4151 122.264 19.7838C122.264 19.2268 122.202 18.7688 122.078 18.4098C121.954 18.0385 121.769 17.76 121.521 17.5743C121.286 17.3886 120.97 17.2958 120.574 17.2958C120.277 17.2958 119.986 17.3639 119.702 17.5C119.429 17.6238 119.151 17.8404 118.866 18.1499V21.882C119.126 22.0924 119.392 22.2471 119.664 22.3462C119.949 22.4452 120.209 22.4947 120.444 22.4947ZM133.267 24.7228C132.116 24.7228 131.243 24.3762 130.649 23.683C130.055 22.9898 129.758 22.0615 129.758 20.8979V13.638H126.88V11.5027H132.487V21.0093C132.487 21.5787 132.642 21.9748 132.952 22.1976C133.261 22.4081 133.601 22.5133 133.973 22.5133C134.196 22.5133 134.418 22.4885 134.641 22.439C134.876 22.3895 135.136 22.3152 135.421 22.2162L136.015 24.2215C135.545 24.37 135.112 24.4876 134.715 24.5743C134.332 24.6733 133.849 24.7228 133.267 24.7228ZM141.225 24.7228C140.606 24.7228 140.068 24.599 139.61 24.3515C139.164 24.1039 138.818 23.7697 138.57 23.3488C138.323 22.9279 138.199 22.4576 138.199 21.9377C138.199 20.9103 138.663 20.1242 139.591 19.5796C140.532 19.0349 142.092 18.7007 144.27 18.5769C144.233 18.2922 144.14 18.0509 143.992 17.8528C143.843 17.6548 143.627 17.5062 143.342 17.4072C143.07 17.2958 142.723 17.2401 142.302 17.2401C142.005 17.2401 141.708 17.2772 141.411 17.3515C141.114 17.4134 140.805 17.5124 140.483 17.6486C140.173 17.7724 139.845 17.9209 139.499 18.0942L138.533 16.3117C138.954 16.0641 139.393 15.8475 139.851 15.6618C140.322 15.4762 140.805 15.3338 141.3 15.2348C141.807 15.1234 142.321 15.0677 142.841 15.0677C143.707 15.0677 144.45 15.2224 145.069 15.5319C145.688 15.829 146.164 16.287 146.499 16.9059C146.833 17.5124 147 18.2861 147 19.2268V24.5H144.772L144.568 23.4602H144.493C144.035 23.8068 143.528 24.1039 142.971 24.3515C142.414 24.599 141.832 24.7228 141.225 24.7228ZM142.098 22.6061C142.507 22.6061 142.89 22.5256 143.249 22.3647C143.608 22.1914 143.949 21.981 144.27 21.7334V20.2109C143.367 20.2604 142.661 20.3532 142.154 20.4894C141.659 20.6256 141.312 20.7989 141.114 21.0093C140.916 21.2197 140.817 21.4611 140.817 21.7334C140.817 21.9191 140.866 22.08 140.965 22.2162C141.077 22.3524 141.225 22.4514 141.411 22.5133C141.609 22.5752 141.838 22.6061 142.098 22.6061ZM149.536 24.5V15.2905H151.764L151.969 16.516H152.043C152.439 16.1198 152.891 15.7794 153.398 15.4947C153.918 15.21 154.525 15.0677 155.218 15.0677C156.258 15.0677 157.019 15.4019 157.502 16.0703C157.985 16.7388 158.226 17.6548 158.226 18.8183V24.5H155.497V19.1711C155.497 18.5522 155.391 18.1004 155.181 17.8157C154.983 17.531 154.636 17.3886 154.141 17.3886C153.77 17.3886 153.442 17.4753 153.157 17.6486C152.885 17.8095 152.588 18.0447 152.266 18.3541V24.5H149.536Z" fill="#0A0A0A"/>
<path d="M104.001 24.5L107.528 18.2799L104.205 12.394H107.269L108.438 14.6778C108.574 14.9501 108.717 15.2472 108.865 15.569C109.014 15.8908 109.181 16.2436 109.367 16.6274H109.441C109.577 16.2436 109.713 15.8908 109.849 15.569C109.986 15.2472 110.122 14.9501 110.258 14.6778L111.335 12.394H114.268L110.945 18.4098L114.473 24.5H111.428L110.109 22.0305C109.948 21.7087 109.788 21.393 109.627 21.0836C109.478 20.7617 109.317 20.4151 109.144 20.0438H109.07C108.921 20.4151 108.772 20.7617 108.624 21.0836C108.475 21.393 108.327 21.7087 108.178 22.0305L106.916 24.5H104.001Z" fill="#F31111"/>
</svg>
