<svg width="279" height="265" viewBox="0 0 279 265" fill="none" xmlns="http://www.w3.org/2000/svg">
<path d="M93.3333 140.235V171.176M47.1667 140.235V186.647M139.5 140.235V186.647M231.833 140.235V186.647M185.667 140.235V171.176M1 1V62.8824M1 31.9412H278M278 1V62.8824M260.687 140.235C270.244 140.235 278 148.156 278 157.918V246.317C278 256.079 270.244 264 260.687 264H16.3889C12.3075 264 8.39328 262.37 5.5073 259.469C2.62132 256.567 1 252.632 1 248.529V157.918C1 148.156 8.756 140.235 18.3125 140.235H260.687Z" stroke="#0A0A0A" stroke-width="2" stroke-linecap="round" stroke-linejoin="round"/>
</svg>
