<svg width="60" height="60" viewBox="0 0 60 60" fill="none" xmlns="http://www.w3.org/2000/svg">
<path d="M7.5 52.5008H17.5L50 20.0008C51.3261 18.6747 52.0711 16.8761 52.0711 15.0008C52.0711 13.1254 51.3261 11.3268 50 10.0008C48.6739 8.67467 46.8754 7.92969 45 7.92969C43.1246 7.92969 41.3261 8.67467 40 10.0008L7.5 42.5008V52.5008Z" stroke="#0A0A0A" stroke-width="1.8" stroke-linecap="round" stroke-linejoin="round"/>
<path d="M36.25 13.75L46.25 23.75" stroke="#0A0A0A" stroke-width="1.8" stroke-linecap="round" stroke-linejoin="round"/>
<path d="M30 20L17.5 7.5L7.5 17.5L20 30M17.5 20L13.75 23.75M40 30L52.5 42.5L42.5 52.5L30 40M40 42.5L36.25 46.25" stroke="#0A0A0A" stroke-opacity="0.4" stroke-width="1.8" stroke-linecap="round" stroke-linejoin="round"/>
</svg>
