<svg width="60" height="60" viewBox="0 0 60 60" fill="none" xmlns="http://www.w3.org/2000/svg">
<g clip-path="url(#clip0_4001_86)">
<path d="M7.5 17.5C7.5 16.1739 8.02678 14.9021 8.96447 13.9645C9.90215 13.0268 11.1739 12.5 12.5 12.5H47.5C48.8261 12.5 50.0979 13.0268 51.0355 13.9645C51.9732 14.9021 52.5 16.1739 52.5 17.5V42.5C52.5 43.8261 51.9732 45.0979 51.0355 46.0355C50.0979 46.9732 48.8261 47.5 47.5 47.5H12.5C11.1739 47.5 9.90215 46.9732 8.96447 46.0355C8.02678 45.0979 7.5 43.8261 7.5 42.5V17.5Z" stroke="#0A0A0A" stroke-width="1.8" stroke-linecap="round" stroke-linejoin="round"/>
<path d="M17.5 23.75C17.5 23.4185 17.6317 23.1005 17.8661 22.8661C18.1005 22.6317 18.4185 22.5 18.75 22.5H21.25C22.2446 22.5 23.1984 22.8951 23.9017 23.5983C24.6049 24.3016 25 25.2554 25 26.25C25 27.2446 24.6049 28.1984 23.9017 28.9017C23.1984 29.6049 22.2446 30 21.25 30M21.25 30H20M21.25 30C22.2446 30 23.1984 30.3951 23.9017 31.0983C24.6049 31.8016 25 32.7554 25 33.75C25 34.7446 24.6049 35.6984 23.9017 36.4017C23.1984 37.1049 22.2446 37.5 21.25 37.5H18.75C18.4185 37.5 18.1005 37.3683 17.8661 37.1339C17.6317 36.8995 17.5 36.5815 17.5 36.25" stroke="#0A0A0A" stroke-opacity="0.4" stroke-width="1.8" stroke-linecap="round" stroke-linejoin="round"/>
<path d="M35 22.5V37.5H37.5C38.8261 37.5 40.0979 36.9732 41.0355 36.0355C41.9732 35.0979 42.5 33.8261 42.5 32.5V27.5C42.5 26.1739 41.9732 24.9021 41.0355 23.9645C40.0979 23.0268 38.8261 22.5 37.5 22.5H35Z" stroke="#0A0A0A" stroke-opacity="0.4" stroke-width="1.8" stroke-linecap="round" stroke-linejoin="round"/>
</g>
<defs>
<clipPath id="clip0_4001_86">
<rect width="60" height="60" fill="white"/>
</clipPath>
</defs>
</svg>
