<svg width="60" height="60" viewBox="0 0 60 60" fill="none" xmlns="http://www.w3.org/2000/svg">
<path d="M37.166 20.4443H37.1899" stroke="#0A0A0A" stroke-opacity="0.4" stroke-width="1.8" stroke-linecap="round" stroke-linejoin="round"/>
<path d="M8.5 15.6667C8.5 13.7659 9.25506 11.9431 10.5991 10.5991C11.9431 9.25506 13.7659 8.5 15.6667 8.5H44.3333C46.2341 8.5 48.0569 9.25506 49.4009 10.5991C50.7449 11.9431 51.5 13.7659 51.5 15.6667V44.3333C51.5 46.2341 50.7449 48.0569 49.4009 49.4009C48.0569 50.7449 46.2341 51.5 44.3333 51.5H15.6667C13.7659 51.5 11.9431 50.7449 10.5991 49.4009C9.25506 48.0569 8.5 46.2341 8.5 44.3333V15.6667Z" stroke="#0A0A0A" stroke-width="1.8" stroke-linecap="round" stroke-linejoin="round"/>
<path d="M8.5 39.5542L20.4444 27.6097C22.6613 25.4764 25.3942 25.4764 27.6111 27.6097L39.5556 39.5542M34.7773 34.7759L37.1662 32.387C39.3831 30.2537 42.116 30.2537 44.3329 32.387L51.4996 39.5537" stroke="#0A0A0A" stroke-opacity="0.4" stroke-width="1.8" stroke-linecap="round" stroke-linejoin="round"/>
</svg>
