<svg width="60" height="60" viewBox="0 0 60 60" fill="none" xmlns="http://www.w3.org/2000/svg">
<path d="M42.5 42.5H47.5C48.8261 42.5 50.0979 41.9732 51.0355 41.0355C51.9732 40.0979 52.5 38.8261 52.5 37.5V27.5C52.5 26.1739 51.9732 24.9021 51.0355 23.9645C50.0979 23.0268 48.8261 22.5 47.5 22.5H12.5C11.1739 22.5 9.90215 23.0268 8.96447 23.9645C8.02678 24.9021 7.5 26.1739 7.5 27.5V37.5C7.5 38.8261 8.02678 40.0979 8.96447 41.0355C9.90215 41.9732 11.1739 42.5 12.5 42.5H17.5" stroke="#0A0A0A" stroke-width="1.8" stroke-linecap="round" stroke-linejoin="round"/>
<path d="M42.5 22.5V12.5C42.5 11.1739 41.9732 9.90215 41.0355 8.96447C40.0979 8.02678 38.8261 7.5 37.5 7.5H22.5C21.1739 7.5 19.9021 8.02678 18.9645 8.96447C18.0268 9.90215 17.5 11.1739 17.5 12.5V22.5" stroke="#0A0A0A" stroke-width="1.8" stroke-linecap="round" stroke-linejoin="round"/>
<path d="M17.5 37.5C17.5 36.1739 18.0268 34.9021 18.9645 33.9645C19.9021 33.0268 21.1739 32.5 22.5 32.5H37.5C38.8261 32.5 40.0979 33.0268 41.0355 33.9645C41.9732 34.9021 42.5 36.1739 42.5 37.5V47.5C42.5 48.8261 41.9732 50.0979 41.0355 51.0355C40.0979 51.9732 38.8261 52.5 37.5 52.5H22.5C21.1739 52.5 19.9021 51.9732 18.9645 51.0355C18.0268 50.0979 17.5 48.8261 17.5 47.5V37.5Z" stroke="#0A0A0A" stroke-opacity="0.4" stroke-width="1.8" stroke-linecap="round" stroke-linejoin="round"/>
</svg>
