<svg width="22" height="20" viewBox="0 0 22 20" fill="none" xmlns="http://www.w3.org/2000/svg">
<path d="M20.3715 0.00186296C20.0872 0.0152472 19.8194 0.0988984 19.5814 0.192588H19.5781C19.3368 0.289623 18.1896 0.778148 16.4473 1.51763C14.705 2.26045 12.4437 3.22411 10.1989 4.18109C5.71593 6.09168 1.30899 7.97217 1.30899 7.97217L1.36189 7.95209C1.36189 7.95209 1.05774 8.05247 0.740357 8.27331C0.578362 8.38039 0.399836 8.52761 0.244454 8.75849C0.0890701 8.98937 -0.0365593 9.34405 0.00972547 9.70877C0.0857643 10.3278 0.482488 10.6992 0.766805 10.9033C1.05443 11.1108 1.32883 11.2078 1.32883 11.2078H1.33544L5.46798 12.6165C5.65311 13.2188 6.72757 16.7924 6.98544 17.6155C7.13752 18.1074 7.28629 18.4152 7.47143 18.6494C7.56069 18.7699 7.66648 18.8703 7.79211 18.9506C7.8417 18.9807 7.8946 19.0041 7.9475 19.0242C7.96403 19.0342 7.98056 19.0376 8.00039 19.0409L7.95741 19.0309C7.97064 19.0342 7.98056 19.0443 7.99047 19.0476C8.02353 19.0576 8.04668 19.061 8.08965 19.0677C8.74425 19.2684 9.26991 18.8569 9.26991 18.8569L9.29966 18.8335L11.7395 16.5849L15.8291 19.7603L15.9216 19.8005C16.7746 20.1786 17.6375 19.9678 18.0937 19.5964C18.5532 19.2216 18.7318 18.7431 18.7318 18.7431L18.7615 18.6662L21.9221 2.28053C22.0113 1.87565 22.0345 1.49755 21.9353 1.12948C21.8361 0.761418 21.5816 0.416774 21.2741 0.232741C20.9633 0.0453615 20.6559 -0.0115213 20.3715 0.00186296ZM20.2856 1.75854C20.2823 1.81208 20.2922 1.80539 20.2691 1.90911V1.91915L17.1383 18.1341C17.125 18.1576 17.1019 18.2077 17.0391 18.2579C16.9729 18.3115 16.9201 18.3449 16.6457 18.2345L11.6436 14.3531L8.62193 17.1404L9.25668 13.0381C9.25668 13.0381 17.092 5.64666 17.4292 5.32878C17.7664 5.01091 17.654 4.94399 17.654 4.94399C17.6771 4.55584 17.1449 4.83022 17.1449 4.83022L6.83998 11.2915L6.83667 11.2747L1.89747 9.59166V9.58831C1.89416 9.58831 1.88755 9.58496 1.88424 9.58496C1.88755 9.58496 1.91069 9.57493 1.91069 9.57493L1.93714 9.56154L1.96359 9.5515C1.96359 9.5515 6.37383 7.67102 10.8568 5.76042C13.1016 4.80345 15.3629 3.83979 17.1019 3.09696C18.8409 2.35749 20.1269 1.81542 20.1996 1.78531C20.2691 1.75854 20.236 1.75854 20.2856 1.75854Z" fill="#0A0A0A"/>
</svg>
