<svg width="60" height="60" viewBox="0 0 60 60" fill="none" xmlns="http://www.w3.org/2000/svg">
<path d="M10 27.5C11.3261 27.5 12.5979 28.0268 13.5355 28.9645C14.4732 29.9021 15 31.1739 15 32.5V35H45V32.5C45 31.1739 45.5268 29.9021 46.4645 28.9645C47.4021 28.0268 48.6739 27.5 50 27.5C51.3261 27.5 52.5979 28.0268 53.5355 28.9645C54.4732 29.9021 55 31.1739 55 32.5V45C55 45.663 54.7366 46.2989 54.2678 46.7678C53.7989 47.2366 53.163 47.5 52.5 47.5H7.5C6.83696 47.5 6.20107 47.2366 5.73223 46.7678C5.26339 46.2989 5 45.663 5 45V32.5C5 31.1739 5.52678 29.9021 6.46447 28.9645C7.40215 28.0268 8.67392 27.5 10 27.5Z" stroke="#0A0A0A" stroke-opacity="0.4" stroke-width="1.8" stroke-linecap="round" stroke-linejoin="round"/>
<path d="M10 27.5V20C10 18.0109 10.7902 16.1032 12.1967 14.6967C13.6032 13.2902 15.5109 12.5 17.5 12.5H42.5C44.4891 12.5 46.3968 13.2902 47.8033 14.6967C49.2098 16.1032 50 18.0109 50 20V27.5" stroke="#0A0A0A" stroke-width="1.8" stroke-linecap="round" stroke-linejoin="round"/>
<path d="M30 12.5V35" stroke="#0A0A0A" stroke-width="1.8" stroke-linecap="round" stroke-linejoin="round"/>
</svg>
