<svg width="60" height="60" viewBox="0 0 60 60" fill="none" xmlns="http://www.w3.org/2000/svg">
<path d="M15 13.75C15 15.4076 16.5804 16.9973 19.3934 18.1694C22.2064 19.3415 26.0218 20 30 20C33.9782 20 37.7936 19.3415 40.6066 18.1694C43.4196 16.9973 45 15.4076 45 13.75C45 12.0924 43.4196 10.5027 40.6066 9.33058C37.7936 8.15848 33.9782 7.5 30 7.5C26.0218 7.5 22.2064 8.15848 19.3934 9.33058C16.5804 10.5027 15 12.0924 15 13.75Z" stroke="#0A0A0A" stroke-width="1.8" stroke-linecap="round" stroke-linejoin="round"/>
<path d="M45.002 13.75V25.315C45.7278 24.9863 46.5432 24.9122 47.3163 25.1047C48.0893 25.2972 48.7748 25.745 49.2616 26.3757C49.7485 27.0063 50.0082 27.7828 49.9988 28.5794C49.9893 29.376 49.7112 30.1461 49.2096 30.765L48.9671 31.035L45.002 35V45C45.002 49.025 38.652 52.3125 30.6895 52.5H30.0021C21.7171 52.5 15.0021 49.1425 15.0021 45V40L11.0371 36.035C10.4507 35.4494 10.0886 34.6763 10.0143 33.8509C9.9399 33.0255 10.1579 32.2003 10.6302 31.5192C11.1024 30.8382 11.799 30.3448 12.5981 30.1251C13.3972 29.9055 14.248 29.9736 15.0021 30.3175V13.75" stroke="#0A0A0A" stroke-width="1.8" stroke-linecap="round" stroke-linejoin="round"/>
<path d="M25 31.25V35" stroke="#0A0A0A" stroke-opacity="0.4" stroke-width="1.8" stroke-linecap="round" stroke-linejoin="round"/>
<path d="M35 40V42.5" stroke="#0A0A0A" stroke-opacity="0.4" stroke-width="1.8" stroke-linecap="round" stroke-linejoin="round"/>
</svg>
