<svg width="60" height="60" viewBox="0 0 60 60" fill="none" xmlns="http://www.w3.org/2000/svg">
<path d="M30 52.5C24.0326 52.5 18.3097 50.1295 14.0901 45.9099C9.87053 41.6903 7.5 35.9674 7.5 30C7.5 24.0326 9.87053 18.3097 14.0901 14.0901C18.3097 9.87053 24.0326 7.5 30 7.5C42.425 7.5 52.5 16.455 52.5 27.5C52.5 30.15 51.315 32.695 49.205 34.57C47.095 36.445 44.2325 37.5 41.25 37.5H35C33.8847 37.482 32.7953 37.8375 31.9053 38.51C31.0153 39.1824 30.3757 40.1332 30.0883 41.211C29.8008 42.2889 29.8821 43.4319 30.3191 44.4582C30.7561 45.4845 31.5238 46.3352 32.5 46.875C32.9992 47.3356 33.3415 47.941 33.4788 48.6062C33.6162 49.2713 33.5418 49.9628 33.2659 50.5835C32.9901 51.2041 32.5267 51.7228 31.9409 52.0665C31.3551 52.4103 30.6764 52.5619 30 52.5Z" stroke="#0A0A0A" stroke-width="1.8" stroke-linecap="round" stroke-linejoin="round"/>
<path d="M18.75 26.25C18.75 26.913 19.0134 27.5489 19.4822 28.0178C19.9511 28.4866 20.587 28.75 21.25 28.75C21.913 28.75 22.5489 28.4866 23.0178 28.0178C23.4866 27.5489 23.75 26.913 23.75 26.25C23.75 25.587 23.4866 24.9511 23.0178 24.4822C22.5489 24.0134 21.913 23.75 21.25 23.75C20.587 23.75 19.9511 24.0134 19.4822 24.4822C19.0134 24.9511 18.75 25.587 18.75 26.25Z" stroke="#0A0A0A" stroke-opacity="0.4" stroke-width="1.8" stroke-linecap="round" stroke-linejoin="round"/>
<path d="M28.75 18.75C28.75 19.413 29.0134 20.0489 29.4822 20.5178C29.9511 20.9866 30.587 21.25 31.25 21.25C31.913 21.25 32.5489 20.9866 33.0178 20.5178C33.4866 20.0489 33.75 19.413 33.75 18.75C33.75 18.087 33.4866 17.4511 33.0178 16.9822C32.5489 16.5134 31.913 16.25 31.25 16.25C30.587 16.25 29.9511 16.5134 29.4822 16.9822C29.0134 17.4511 28.75 18.087 28.75 18.75Z" stroke="#0A0A0A" stroke-opacity="0.4" stroke-width="1.8" stroke-linecap="round" stroke-linejoin="round"/>
<path d="M38.75 26.25C38.75 26.913 39.0134 27.5489 39.4822 28.0178C39.9511 28.4866 40.587 28.75 41.25 28.75C41.913 28.75 42.5489 28.4866 43.0178 28.0178C43.4866 27.5489 43.75 26.913 43.75 26.25C43.75 25.587 43.4866 24.9511 43.0178 24.4822C42.5489 24.0134 41.913 23.75 41.25 23.75C40.587 23.75 39.9511 24.0134 39.4822 24.4822C39.0134 24.9511 38.75 25.587 38.75 26.25Z" stroke="#0A0A0A" stroke-opacity="0.4" stroke-width="1.8" stroke-linecap="round" stroke-linejoin="round"/>
</svg>
