<svg width="60" height="61" viewBox="0 0 60 61" fill="none" xmlns="http://www.w3.org/2000/svg">
<path d="M35 8V18C35 18.663 35.2634 19.2989 35.7322 19.7678C36.2011 20.2366 36.837 20.5 37.5 20.5H47.5" stroke="#0A0A0A" stroke-width="1.8" stroke-linecap="round" stroke-linejoin="round"/>
<path d="M42.5 53H17.5C16.1739 53 14.9021 52.4732 13.9645 51.5355C13.0268 50.5979 12.5 49.3261 12.5 48V13C12.5 11.6739 13.0268 10.4021 13.9645 9.46447C14.9021 8.52678 16.1739 8 17.5 8H35L47.5 20.5V48C47.5 49.3261 46.9732 50.5979 46.0355 51.5355C45.0979 52.4732 43.8261 53 42.5 53Z" stroke="#0A0A0A" stroke-width="1.8" stroke-linecap="round" stroke-linejoin="round"/>
<path d="M22.5 23H25" stroke="#0A0A0A" stroke-opacity="0.4" stroke-width="1.8" stroke-linecap="round" stroke-linejoin="round"/>
<path d="M22.5 33H37.5" stroke="#0A0A0A" stroke-opacity="0.4" stroke-width="1.8" stroke-linecap="round" stroke-linejoin="round"/>
<path d="M22.5 43H37.5" stroke="#0A0A0A" stroke-opacity="0.4" stroke-width="1.8" stroke-linecap="round" stroke-linejoin="round"/>
</svg>
