<svg width="22" height="22" viewBox="0 0 22 22" fill="none" xmlns="http://www.w3.org/2000/svg">
<path d="M18.3564 3.55156C16.3923 1.58281 13.7767 0.5 10.997 0.5C5.25952 0.5 0.590771 5.16875 0.590771 10.9062C0.590771 12.7391 1.0689 14.5297 1.97827 16.1094L0.501709 21.5L6.0189 20.0516C7.53765 20.8813 9.24858 21.3172 10.9923 21.3172H10.997C16.7298 21.3172 21.5017 16.6484 21.5017 10.9109C21.5017 8.13125 20.3205 5.52031 18.3564 3.55156ZM10.997 19.5641C9.44077 19.5641 7.91733 19.1469 6.59077 18.3594L6.27671 18.1719L3.00483 19.0297L3.87671 15.8375L3.67046 15.5094C2.80327 14.1313 2.34858 12.5422 2.34858 10.9062C2.34858 6.13906 6.22983 2.25781 11.0017 2.25781C13.3126 2.25781 15.483 3.15781 17.1142 4.79375C18.7455 6.42969 19.7486 8.6 19.7439 10.9109C19.7439 15.6828 15.7642 19.5641 10.997 19.5641ZM15.7408 13.0859C15.483 12.9547 14.2033 12.3266 13.9642 12.2422C13.7251 12.1531 13.5517 12.1109 13.3783 12.3734C13.2048 12.6359 12.708 13.2172 12.5533 13.3953C12.4033 13.5688 12.2486 13.5922 11.9908 13.4609C10.4626 12.6969 9.45952 12.0969 8.45171 10.3672C8.18452 9.90781 8.7189 9.94063 9.21577 8.94687C9.30015 8.77344 9.25796 8.62344 9.19233 8.49219C9.12671 8.36094 8.6064 7.08125 8.39077 6.56094C8.17983 6.05469 7.96421 6.125 7.80483 6.11563C7.65483 6.10625 7.4814 6.10625 7.30796 6.10625C7.13452 6.10625 6.85327 6.17188 6.61421 6.42969C6.37515 6.69219 5.70483 7.32031 5.70483 8.6C5.70483 9.87969 6.63765 11.1172 6.76421 11.2906C6.89546 11.4641 8.59702 14.0891 11.208 15.2188C12.858 15.9312 13.5048 15.9922 14.3298 15.8703C14.8314 15.7953 15.8673 15.2422 16.083 14.6328C16.2986 14.0234 16.2986 13.5031 16.233 13.3953C16.172 13.2781 15.9986 13.2125 15.7408 13.0859Z" fill="black"/>
</svg>
