<svg width="60" height="60" viewBox="0 0 60 60" fill="none" xmlns="http://www.w3.org/2000/svg">
<path d="M17.5 17.5H15C13.6739 17.5 12.4021 18.0268 11.4645 18.9645C10.5268 19.9021 10 21.1739 10 22.5V45C10 46.3261 10.5268 47.5979 11.4645 48.5355C12.4021 49.4732 13.6739 50 15 50H37.5C38.8261 50 40.0979 49.4732 41.0355 48.5355C41.9732 47.5979 42.5 46.3261 42.5 45V42.5" stroke="#0A0A0A" stroke-opacity="0.4" stroke-width="1.8" stroke-linecap="round" stroke-linejoin="round"/>
<path d="M50.9625 16.4628C51.9471 15.4782 52.5003 14.1427 52.5003 12.7503C52.5003 11.3578 51.9471 10.0224 50.9625 9.03777C49.9779 8.05315 48.6425 7.5 47.25 7.5C45.8575 7.5 44.5221 8.05315 43.5375 9.03777L22.5 30.0003V37.5003H30L50.9625 16.4628Z" stroke="#0A0A0A" stroke-width="1.8" stroke-linecap="round" stroke-linejoin="round"/>
<path d="M40 12.5L47.5 20" stroke="#0A0A0A" stroke-width="1.8" stroke-linecap="round" stroke-linejoin="round"/>
</svg>
