<svg width="60" height="60" viewBox="0 0 60 60" fill="none" xmlns="http://www.w3.org/2000/svg">
<path d="M7.5 17.5C7.5 16.1739 8.02678 14.9021 8.96447 13.9645C9.90215 13.0268 11.1739 12.5 12.5 12.5H47.5C48.8261 12.5 50.0979 13.0268 51.0355 13.9645C51.9732 14.9021 52.5 16.1739 52.5 17.5V42.5C52.5 43.8261 51.9732 45.0979 51.0355 46.0355C50.0979 46.9732 48.8261 47.5 47.5 47.5H12.5C11.1739 47.5 9.90215 46.9732 8.96447 46.0355C8.02678 45.0979 7.5 43.8261 7.5 42.5V17.5Z" stroke="#0A0A0A" stroke-width="1.8" stroke-linecap="round" stroke-linejoin="round"/>
<path d="M26.2493 37.5018L25 37.499H17.5C17.5 37.499 21.4017 32.2585 23.9017 28.9007C28.75 22.5 17.5 19.9941 17.5 26.247" stroke="#0A0A0A" stroke-opacity="0.4" stroke-width="1.8" stroke-linecap="round" stroke-linejoin="round"/>
<path d="M35 22.5V37.5H37.5C38.8261 37.5 40.0979 36.9732 41.0355 36.0355C41.9732 35.0979 42.5 33.8261 42.5 32.5V27.5C42.5 26.1739 41.9732 24.9021 41.0355 23.9645C40.0979 23.0268 38.8261 22.5 37.5 22.5H35Z" stroke="#0A0A0A" stroke-opacity="0.4" stroke-width="1.8" stroke-linecap="round" stroke-linejoin="round"/>
</svg>
